<svg width="500" height="500" viewBox="0 0 500 500" fill="none" xmlns="http://www.w3.org/2000/svg">
<path d="M473.98 328.87H420.83V398.97H473.98V328.87Z" fill="#F5F5F5"/>
<path d="M473.981 328.87H449.061V398.97H473.981V328.87Z" fill="#EBEBEB"/>
<path d="M436.751 338.36H431.971V349.97H436.751V338.36Z" fill="#EBEBEB"/>
<path d="M436.751 383.8H431.971V395.41H436.751V383.8Z" fill="#EBEBEB"/>
<path d="M449.06 354.52C449.06 354.62 442.74 354.7 434.95 354.7C427.16 354.7 420.83 354.62 420.83 354.52C420.83 354.42 427.15 354.34 434.95 354.34C442.75 354.34 449.06 354.42 449.06 354.52Z" fill="#EBEBEB"/>
<path d="M436.751 361.25H431.971V372.86H436.751V361.25Z" fill="#EBEBEB"/>
<path d="M449.06 377.42C449.06 377.52 442.74 377.6 434.95 377.6C427.16 377.6 420.83 377.52 420.83 377.42C420.83 377.32 427.15 377.23 434.95 377.23C442.75 377.23 449.06 377.32 449.06 377.42Z" fill="#EBEBEB"/>
<path d="M459.132 338.36H454.352V349.97H459.132V338.36Z" fill="#E0E0E0"/>
<path d="M469.501 338.36H464.721V349.97H469.501V338.36Z" fill="#E0E0E0"/>
<path d="M459.132 360.39H454.352V372H459.132V360.39Z" fill="#E0E0E0"/>
<path d="M469.501 360.39H464.721V372H469.501V360.39Z" fill="#E0E0E0"/>
<path d="M459.132 382.42H454.352V394.03H459.132V382.42Z" fill="#E0E0E0"/>
<path d="M469.501 382.42H464.721V394.03H469.501V382.42Z" fill="#E0E0E0"/>
<path d="M477.97 326.42H416.83V328.95H477.97V326.42Z" fill="#E0E0E0"/>
<path d="M474.351 329.19C474.351 329.29 462.471 329.37 447.821 329.37C433.171 329.37 421.291 329.29 421.291 329.19C421.291 329.09 433.171 329.01 447.821 329.01C462.471 329.01 474.351 329.09 474.351 329.19Z" fill="#F5F5F5"/>
<path d="M361.84 151.78H267.08V399.8H361.84V151.78Z" fill="#EBEBEB"/>
<path d="M361.831 151.78H314.451V399.8H361.831V151.78Z" fill="#E0E0E0"/>
<path d="M311.36 122.3H277.9V151.78H311.36V122.3Z" fill="#EBEBEB"/>
<path d="M311.351 122.3H303.381V151.78H311.351V122.3Z" fill="#E0E0E0"/>
<path d="M364.602 150.06H259.182V151.78H364.602V150.06Z" fill="#E0E0E0"/>
<path d="M293.801 164.64H285.781V181.55H293.801V164.64Z" fill="white"/>
<path d="M314.45 188.19C314.45 188.37 303.85 188.51 290.77 188.51C277.69 188.51 267.08 188.37 267.08 188.19C267.08 188.01 277.68 187.86 290.77 187.86C303.86 187.86 314.45 188 314.45 188.19Z" fill="#E0E0E0"/>
<path d="M341.59 164.64H333.57V181.55H341.59V164.64Z" fill="#F5F5F5"/>
<path d="M362.241 188.19C362.241 188.37 351.641 188.51 338.561 188.51C325.481 188.51 314.871 188.37 314.871 188.19C314.871 188.01 325.471 187.86 338.561 187.86C351.651 187.86 362.241 188 362.241 188.19Z" fill="#EBEBEB"/>
<path d="M341.59 198.21H333.57V215.12H341.59V198.21Z" fill="#F5F5F5"/>
<path d="M362.241 221.76C362.241 221.94 351.641 222.09 338.561 222.09C325.481 222.09 314.871 221.94 314.871 221.76C314.871 221.58 325.471 221.44 338.561 221.44C351.651 221.44 362.241 221.59 362.241 221.76Z" fill="#EBEBEB"/>
<path d="M341.59 232.8H333.57V249.71H341.59V232.8Z" fill="#F5F5F5"/>
<path d="M362.241 256.35C362.241 256.53 351.641 256.68 338.561 256.68C325.481 256.68 314.871 256.53 314.871 256.35C314.871 256.17 325.471 256.03 338.561 256.03C351.651 256.03 362.241 256.18 362.241 256.35Z" fill="#EBEBEB"/>
<path d="M341.59 267.4H333.57V284.31H341.59V267.4Z" fill="#F5F5F5"/>
<path d="M362.241 290.94C362.241 291.12 351.641 291.27 338.561 291.27C325.481 291.27 314.871 291.12 314.871 290.94C314.871 290.76 325.471 290.62 338.561 290.62C351.651 290.62 362.241 290.77 362.241 290.94Z" fill="#EBEBEB"/>
<path d="M341.59 301H333.57V317.91H341.59V301Z" fill="#F5F5F5"/>
<path d="M362.241 324.55C362.241 324.72 351.641 324.87 338.561 324.87C325.481 324.87 314.871 324.72 314.871 324.55C314.871 324.38 325.471 324.22 338.561 324.22C351.651 324.22 362.241 324.37 362.241 324.55Z" fill="#EBEBEB"/>
<path d="M341.59 334.73H333.57V351.64H341.59V334.73Z" fill="#F5F5F5"/>
<path d="M341.59 368.91H333.57V385.82H341.59V368.91Z" fill="#F5F5F5"/>
<path d="M362.241 358.28C362.241 358.46 351.641 358.61 338.561 358.61C325.481 358.61 314.871 358.46 314.871 358.28C314.871 358.1 325.471 357.96 338.561 357.96C351.651 357.96 362.241 358.1 362.241 358.28Z" fill="#EBEBEB"/>
<path d="M293.801 198.73H285.781V215.64H293.801V198.73Z" fill="white"/>
<path d="M314.45 222.28C314.45 222.45 303.85 222.6 290.77 222.6C277.69 222.6 267.08 222.45 267.08 222.28C267.08 222.11 277.68 221.95 290.77 221.95C303.86 221.95 314.45 222.1 314.45 222.28Z" fill="#E0E0E0"/>
<path d="M293.801 232.82H285.781V249.73H293.801V232.82Z" fill="white"/>
<path d="M314.45 256.37C314.45 256.54 303.85 256.69 290.77 256.69C277.69 256.69 267.08 256.54 267.08 256.37C267.08 256.2 277.68 256.04 290.77 256.04C303.86 256.04 314.45 256.19 314.45 256.37Z" fill="#E0E0E0"/>
<path d="M293.801 266.91H285.781V283.82H293.801V266.91Z" fill="white"/>
<path d="M314.45 290.46C314.45 290.63 303.85 290.78 290.77 290.78C277.69 290.78 267.08 290.63 267.08 290.46C267.08 290.29 277.68 290.13 290.77 290.13C303.86 290.13 314.45 290.28 314.45 290.46Z" fill="#E0E0E0"/>
<path d="M293.801 301H285.781V317.91H293.801V301Z" fill="white"/>
<path d="M314.45 324.55C314.45 324.72 303.85 324.87 290.77 324.87C277.69 324.87 267.08 324.72 267.08 324.55C267.08 324.38 277.68 324.22 290.77 324.22C303.86 324.22 314.45 324.37 314.45 324.55Z" fill="#E0E0E0"/>
<path d="M293.801 335.09H285.781V352H293.801V335.09Z" fill="white"/>
<path d="M314.45 358.64C314.45 358.81 303.85 358.96 290.77 358.96C277.69 358.96 267.08 358.81 267.08 358.64C267.08 358.47 277.68 358.31 290.77 358.31C303.86 358.31 314.45 358.46 314.45 358.64Z" fill="#E0E0E0"/>
<path d="M293.801 369.18H285.781V386.09H293.801V369.18Z" fill="white"/>
<path d="M229.791 303.53H157.131V399.37H229.791V303.53Z" fill="#EBEBEB"/>
<path d="M229.791 303.53H195.721V399.37H229.791V303.53Z" fill="#E0E0E0"/>
<path d="M178.891 316.5H172.361V332.37H178.891V316.5Z" fill="#F5F5F5"/>
<path d="M178.891 378.63H172.361V394.5H178.891V378.63Z" fill="#F5F5F5"/>
<path d="M195.721 338.61C195.721 338.78 187.081 338.93 176.421 338.93C165.761 338.93 157.131 338.78 157.131 338.61C157.131 338.44 165.771 338.28 176.421 338.28C187.071 338.28 195.721 338.43 195.721 338.61Z" fill="#F5F5F5"/>
<path d="M178.891 347.8H172.361V363.67H178.891V347.8Z" fill="#F5F5F5"/>
<path d="M195.721 369.9C195.721 370.08 187.081 370.23 176.421 370.23C165.761 370.23 157.131 370.08 157.131 369.9C157.131 369.72 165.771 369.58 176.421 369.58C187.071 369.58 195.721 369.73 195.721 369.9Z" fill="#F5F5F5"/>
<path d="M209.481 316.5H202.951V332.37H209.481V316.5Z" fill="#F5F5F5"/>
<path d="M223.661 316.5H217.131V332.37H223.661V316.5Z" fill="#F5F5F5"/>
<path d="M209.481 346.62H202.951V362.49H209.481V346.62Z" fill="#F5F5F5"/>
<path d="M223.661 346.62H217.131V362.49H223.661V346.62Z" fill="#F5F5F5"/>
<path d="M209.481 376.74H202.951V392.61H209.481V376.74Z" fill="#F5F5F5"/>
<path d="M223.661 376.74H217.131V392.61H223.661V376.74Z" fill="#F5F5F5"/>
<path d="M235.26 300.19H151.67V303.65H235.26V300.19Z" fill="#E0E0E0"/>
<path d="M230.3 304C230.3 304.18 214.06 304.33 194.03 304.33C174 304.33 157.75 304.18 157.75 304C157.75 303.82 173.99 303.68 194.03 303.68C214.07 303.68 230.3 303.8 230.3 304Z" fill="#EBEBEB"/>
<path d="M384.631 184.69L449.001 185C449.001 185 442.901 171 429.871 171C419.941 171 419.501 177.18 413.531 178.95C407.561 180.72 395.001 169.9 384.631 184.69Z" fill="#EBEBEB"/>
<path d="M106.721 116.15L219.921 116.62C219.921 116.62 209.201 92.09 186.291 92.08C168.831 92.08 168.051 102.95 157.571 106.08C147.091 109.21 125.001 90.14 106.721 116.15Z" fill="#F5F5F5"/>
<path d="M333.76 79.4599L419.05 79.8099C419.05 79.8099 411 61.3299 393.71 61.3199C380.55 61.3199 379.97 69.5099 372.07 71.8499C364.17 74.1899 347.5 59.8599 333.76 79.4599Z" fill="#FAFAFA"/>
<path d="M484.351 399C484.351 399.15 379.231 399.26 249.591 399.26C119.951 399.26 14.8105 399.15 14.8105 399C14.8105 398.85 119.901 398.74 249.591 398.74C379.281 398.74 484.351 398.86 484.351 399Z" fill="#263238"/>
<path d="M436.269 253.85H380.859V398.88H436.269V253.85Z" fill="#3B82F6"/>
<path d="M436.259 253.85H408.559V398.88H436.259V253.85Z" fill="#263238"/>
<path d="M406.759 236.61H387.189V253.85H406.759V236.61Z" fill="#3B82F6"/>
<path d="M406.75 236.61H402.09V253.85H406.75V236.61Z" fill="#263238"/>
<path d="M437.89 252.84H376.24V253.85H437.89V252.84Z" fill="#3B82F6"/>
<path d="M396.489 261.37H391.799V271.26H396.489V261.37Z" fill="#263238"/>
<path d="M408.559 275.14C408.559 275.24 402.359 275.33 394.709 275.33C387.059 275.33 380.859 275.24 380.859 275.14C380.859 275.04 387.059 274.95 394.709 274.95C402.359 274.95 408.559 275 408.559 275.14Z" fill="#263238"/>
<path d="M424.43 261.37H419.74V271.26H424.43V261.37Z" fill="#3B82F6"/>
<path d="M436.509 275.14C436.509 275.24 430.309 275.33 422.659 275.33C415.009 275.33 408.809 275.24 408.809 275.14C408.809 275.04 415.009 274.95 422.659 274.95C430.309 274.95 436.509 275 436.509 275.14Z" fill="#3B82F6"/>
<path d="M424.43 281H419.74V290.89H424.43V281Z" fill="#3B82F6"/>
<path d="M436.509 294.77C436.509 294.88 430.309 294.96 422.659 294.96C415.009 294.96 408.809 294.88 408.809 294.77C408.809 294.66 415.009 294.58 422.659 294.58C430.309 294.58 436.509 294.67 436.509 294.77Z" fill="#3B82F6"/>
<path d="M424.43 301.23H419.74V311.12H424.43V301.23Z" fill="#3B82F6"/>
<path d="M436.509 315C436.509 315.1 430.309 315.19 422.659 315.19C415.009 315.19 408.809 315.1 408.809 315C408.809 314.9 415.009 314.81 422.659 314.81C430.309 314.81 436.509 314.89 436.509 315Z" fill="#3B82F6"/>
<path d="M424.43 321.45H419.74V331.34H424.43V321.45Z" fill="#3B82F6"/>
<path d="M436.509 335.22C436.509 335.33 430.309 335.41 422.659 335.41C415.009 335.41 408.809 335.33 408.809 335.22C408.809 335.11 415.009 335.04 422.659 335.04C430.309 335.04 436.509 335.12 436.509 335.22Z" fill="#3B82F6"/>
<path d="M424.43 341.1H419.74V350.99H424.43V341.1Z" fill="#3B82F6"/>
<path d="M436.509 354.87C436.509 354.98 430.309 355.06 422.659 355.06C415.009 355.06 408.809 354.98 408.809 354.87C408.809 354.76 415.009 354.68 422.659 354.68C430.309 354.68 436.509 354.77 436.509 354.87Z" fill="#3B82F6"/>
<path d="M424.43 360.83H419.74V370.72H424.43V360.83Z" fill="#3B82F6"/>
<path d="M424.43 380.82H419.74V390.71H424.43V380.82Z" fill="#3B82F6"/>
<path d="M436.509 374.6C436.509 374.71 430.309 374.79 422.659 374.79C415.009 374.79 408.809 374.71 408.809 374.6C408.809 374.49 415.009 374.41 422.659 374.41C430.309 374.41 436.509 374.5 436.509 374.6Z" fill="#3B82F6"/>
<path d="M396.489 281.3H391.799V291.19H396.489V281.3Z" fill="#263238"/>
<path d="M408.559 295.07C408.559 295.17 402.359 295.26 394.709 295.26C387.059 295.26 380.859 295.17 380.859 295.07C380.859 294.97 387.059 294.88 394.709 294.88C402.359 294.88 408.559 295 408.559 295.07Z" fill="#263238"/>
<path d="M396.489 301.23H391.799V311.12H396.489V301.23Z" fill="#263238"/>
<path d="M408.559 315C408.559 315.11 402.359 315.19 394.709 315.19C387.059 315.19 380.859 315.11 380.859 315C380.859 314.89 387.059 314.82 394.709 314.82C402.359 314.82 408.559 314.9 408.559 315Z" fill="#263238"/>
<path d="M396.489 321.17H391.799V331.06H396.489V321.17Z" fill="#263238"/>
<path d="M408.559 334.94C408.559 335.04 402.359 335.13 394.709 335.13C387.059 335.13 380.859 335.04 380.859 334.94C380.859 334.84 387.059 334.75 394.709 334.75C402.359 334.75 408.559 334.83 408.559 334.94Z" fill="#263238"/>
<path d="M396.489 341.1H391.799V350.99H396.489V341.1Z" fill="#263238"/>
<path d="M408.559 354.87C408.559 354.98 402.359 355.06 394.709 355.06C387.059 355.06 380.859 354.98 380.859 354.87C380.859 354.76 387.059 354.68 394.709 354.68C402.359 354.68 408.559 354.77 408.559 354.87Z" fill="#263238"/>
<path d="M396.489 361.04H391.799V370.93H396.489V361.04Z" fill="#263238"/>
<path d="M408.559 374.81C408.559 374.91 402.359 375 394.709 375C387.059 375 380.859 374.91 380.859 374.81C380.859 374.71 387.059 374.62 394.709 374.62C402.359 374.62 408.559 374.7 408.559 374.81Z" fill="#263238"/>
<path d="M396.489 380.97H391.799V390.86H396.489V380.97Z" fill="#263238"/>
<path d="M297.519 202.02H223.389V398.94H297.519V202.02Z" fill="#3B82F6"/>
<path d="M297.53 202.02H269.08V398.94H297.53V202.02Z" fill="#263238"/>
<path d="M286.12 217.56H280.49V229.44H286.12V217.56Z" fill="#3B82F6"/>
<path d="M286.12 238.4H280.49V250.28H286.12V238.4Z" fill="#3B82F6"/>
<path d="M286.12 261.74H280.49V273.62H286.12V261.74Z" fill="#3B82F6"/>
<path d="M286.12 284.04H280.49V295.92H286.12V284.04Z" fill="#3B82F6"/>
<path d="M286.12 306.35H280.49V318.23H286.12V306.35Z" fill="#3B82F6"/>
<path d="M286.12 328.65H280.49V340.53H286.12V328.65Z" fill="#3B82F6"/>
<path d="M286.12 350.96H280.49V362.84H286.12V350.96Z" fill="#3B82F6"/>
<path d="M286.12 375.48H280.49V387.36H286.12V375.48Z" fill="#3B82F6"/>
<path d="M301.219 200.78H216.939V203.08H301.219V200.78Z" fill="#263238"/>
<path d="M283.309 186.92H253.299V201.93H283.309V186.92Z" fill="#263238"/>
<path d="M269.079 186.92H253.299V200.78H269.079V186.92Z" fill="#3B82F6"/>
<path d="M239.569 217.07H233.939V228.95H239.569V217.07Z" fill="#263238"/>
<path d="M254.569 217.07H248.939V228.95H254.569V217.07Z" fill="#263238"/>
<path d="M239.569 239.7H233.939V251.58H239.569V239.7Z" fill="#263238"/>
<path d="M254.569 239.7H248.939V251.58H254.569V239.7Z" fill="#263238"/>
<path d="M239.569 262.33H233.939V274.21H239.569V262.33Z" fill="#263238"/>
<path d="M254.569 262.33H248.939V274.21H254.569V262.33Z" fill="#263238"/>
<path d="M239.569 284.96H233.939V296.84H239.569V284.96Z" fill="#263238"/>
<path d="M254.569 284.96H248.939V296.84H254.569V284.96Z" fill="#263238"/>
<path d="M239.569 307.59H233.939V319.47H239.569V307.59Z" fill="#263238"/>
<path d="M254.569 307.59H248.939V319.47H254.569V307.59Z" fill="#263238"/>
<path d="M239.569 330.22H233.939V342.1H239.569V330.22Z" fill="#263238"/>
<path d="M254.569 330.22H248.939V342.1H254.569V330.22Z" fill="#263238"/>
<path d="M239.569 352.85H233.939V364.73H239.569V352.85Z" fill="#263238"/>
<path d="M254.569 352.85H248.939V364.73H254.569V352.85Z" fill="#263238"/>
<path d="M239.569 375.48H233.939V387.36H239.569V375.48Z" fill="#263238"/>
<path d="M254.569 375.48H248.939V387.36H254.569V375.48Z" fill="#263238"/>
<path d="M269.079 233.61C269.079 233.81 258.849 233.97 246.239 233.97C233.629 233.97 223.389 233.81 223.389 233.61C223.389 233.41 233.619 233.26 246.239 233.26C258.859 233.26 269.079 233.42 269.079 233.61Z" fill="#263238"/>
<path d="M269.079 256.32C269.079 256.52 258.849 256.68 246.239 256.68C233.629 256.68 223.389 256.52 223.389 256.32C223.389 256.12 233.619 255.97 246.239 255.97C258.859 255.97 269.079 256.13 269.079 256.32Z" fill="#263238"/>
<path d="M269.079 279.31C269.079 279.5 258.849 279.66 246.239 279.66C233.629 279.66 223.389 279.5 223.389 279.31C223.389 279.12 233.619 278.95 246.239 278.95C258.859 278.95 269.079 279.11 269.079 279.31Z" fill="#263238"/>
<path d="M269.079 302.13C269.079 302.32 258.849 302.48 246.239 302.48C233.629 302.48 223.389 302.32 223.389 302.13C223.389 301.94 233.619 301.77 246.239 301.77C258.859 301.77 269.079 301.93 269.079 302.13Z" fill="#263238"/>
<path d="M269.079 324.62C269.079 324.81 258.849 324.97 246.239 324.97C233.629 324.97 223.389 324.81 223.389 324.62C223.389 324.43 233.619 324.26 246.239 324.26C258.859 324.26 269.079 324.42 269.079 324.62Z" fill="#263238"/>
<path d="M269.079 346.5C269.079 346.69 258.849 346.85 246.239 346.85C233.629 346.85 223.389 346.69 223.389 346.5C223.389 346.31 233.619 346.14 246.239 346.14C258.859 346.14 269.079 346.3 269.079 346.5Z" fill="#263238"/>
<path d="M269.079 370.75C269.079 370.94 258.849 371.1 246.239 371.1C233.629 371.1 223.389 370.94 223.389 370.75C223.389 370.56 233.619 370.39 246.239 370.39C258.859 370.39 269.079 370.55 269.079 370.75Z" fill="#263238"/>
<path d="M297.2 233.61C297.2 233.81 291.11 233.97 283.6 233.97C276.09 233.97 270 233.81 270 233.61C270 233.41 276.08 233.26 283.6 233.26C291.12 233.26 297.2 233.42 297.2 233.61Z" fill="#3B82F6"/>
<path d="M297.2 256.32C297.2 256.52 291.11 256.68 283.6 256.68C276.09 256.68 270 256.52 270 256.32C270 256.12 276.08 255.97 283.6 255.97C291.12 255.97 297.2 256.13 297.2 256.32Z" fill="#3B82F6"/>
<path d="M297.2 279C297.2 279.2 291.11 279.36 283.6 279.36C276.09 279.36 270 279.23 270 279C270 278.77 276.08 278.65 283.6 278.65C291.12 278.65 297.2 278.84 297.2 279Z" fill="#3B82F6"/>
<path d="M296.899 302.13C296.899 302.32 290.809 302.48 283.299 302.48C275.789 302.48 269.699 302.32 269.699 302.13C269.699 301.94 275.789 301.77 283.299 301.77C290.809 301.77 296.899 301.93 296.899 302.13Z" fill="#3B82F6"/>
<path d="M296.899 324.62C296.899 324.81 290.809 324.97 283.299 324.97C275.789 324.97 269.699 324.81 269.699 324.62C269.699 324.43 275.789 324.26 283.299 324.26C290.809 324.26 296.899 324.42 296.899 324.62Z" fill="#3B82F6"/>
<path d="M296.899 347.11C296.899 347.3 290.809 347.46 283.299 347.46C275.789 347.46 269.699 347.3 269.699 347.11C269.699 346.92 275.789 346.75 283.299 346.75C290.809 346.75 296.899 346.91 296.899 347.11Z" fill="#3B82F6"/>
<path d="M296.899 370.75C296.899 370.94 290.809 371.1 283.299 371.1C275.789 371.1 269.699 370.94 269.699 370.75C269.699 370.56 275.789 370.39 283.299 370.39C290.809 370.39 296.899 370.55 296.899 370.75Z" fill="#3B82F6"/>
<path d="M311.201 330.41H281.311V399H311.201V330.41Z" fill="#3B82F6"/>
<path opacity="0.2" d="M311.201 330.41H281.311V399H311.201V330.41Z" fill="black"/>
<path d="M274.32 330.13H348.07L361.85 310.57L376.29 330.69L393.27 330.42L374.97 305.77L292.74 306.12L274.32 330.13Z" fill="#3B82F6"/>
<path opacity="0.2" d="M274.32 330.13H348.07L361.85 310.57L376.29 330.69L393.27 330.42L374.97 305.77L292.74 306.12L274.32 330.13Z" fill="white"/>
<path d="M311.199 330.42V399H384.849V330.42H376.399L361.849 310.57L348.019 330.11L311.199 330.42Z" fill="#3B82F6"/>
<g opacity="0.2">
<path d="M321.609 399V369.27H338.829V399" fill="black"/>
</g>
<path opacity="0.7" d="M376.3 368.43H349.16V385.24H376.3V368.43Z" fill="white"/>
<path opacity="0.7" d="M376.3 334.79H349.16V351.6H376.3V334.79Z" fill="white"/>
<path opacity="0.7" d="M337.03 334.94H319.92V351.14H337.03V334.94Z" fill="white"/>
<path d="M357.119 368.43H356.869V385.4H357.119V368.43Z" fill="#3B82F6"/>
<path d="M368.4 368.43H368.15V385.4H368.4V368.43Z" fill="#3B82F6"/>
<path d="M368.27 377.3H356.99V377.55H368.27V377.3Z" fill="#3B82F6"/>
<path d="M357.119 334.79H356.869V351.76H357.119V334.79Z" fill="#3B82F6"/>
<path d="M368.4 334.79H368.15V351.76H368.4V334.79Z" fill="#3B82F6"/>
<path d="M368.27 343.66H356.99V343.91H368.27V343.66Z" fill="#3B82F6"/>
<path d="M328.6 334.94H328.35V351.14H328.6V334.94Z" fill="#3B82F6"/>
<path d="M337.03 343.31H319.92V343.56H337.03V343.31Z" fill="#3B82F6"/>
<path opacity="0.7" d="M365.44 323.66C365.44 324.378 365.227 325.08 364.828 325.677C364.429 326.274 363.862 326.739 363.199 327.014C362.536 327.288 361.806 327.36 361.102 327.22C360.397 327.08 359.751 326.735 359.243 326.227C358.735 325.719 358.39 325.072 358.249 324.368C358.109 323.664 358.181 322.934 358.456 322.271C358.731 321.608 359.196 321.041 359.793 320.642C360.39 320.243 361.092 320.03 361.81 320.03C362.772 320.033 363.693 320.416 364.374 321.096C365.054 321.776 365.437 322.698 365.44 323.66Z" fill="white"/>
<path d="M335.92 319.21L340.5 313.56V299.97H330.91V319.31L335.92 319.21Z" fill="#3B82F6"/>
<path opacity="0.2" d="M335.92 319.21V299.97H340.5V313.56L335.92 319.21Z" fill="black"/>
<path d="M341.15 297.97H329.84V299.97H341.15V297.97Z" fill="#3B82F6"/>
<path d="M312.05 360.42H255.58V399.01H312.05V360.42Z" fill="#3B82F6"/>
<path opacity="0.2" d="M290.4 360.42H255.58V399.01H290.4V360.42Z" fill="black"/>
<path d="M283.07 398.94C283.032 398.776 283.015 398.608 283.02 398.44C283.02 398.05 283.02 397.57 283.02 396.99C283.02 395.65 283.02 393.83 282.94 391.56C282.94 386.86 282.88 380.37 282.84 372.86L283.12 373.14H262.45L262.72 372.86C262.72 380.37 262.65 386.86 262.62 391.56C262.62 393.83 262.56 395.65 262.54 396.99C262.54 397.57 262.54 398.05 262.49 398.44C262.507 398.606 262.507 398.774 262.49 398.94C262.445 398.777 262.428 398.608 262.44 398.44C262.44 398.05 262.44 397.57 262.44 396.99C262.44 395.65 262.44 393.83 262.36 391.56C262.36 386.87 262.3 380.37 262.26 372.86V372.58H283.44V372.86C283.39 380.37 283.36 386.86 283.33 391.56C283.33 393.83 283.27 395.65 283.25 396.99C283.25 397.57 283.25 398.05 283.25 398.44C283.206 398.612 283.145 398.779 283.07 398.94Z" fill="#263238"/>
<path opacity="0.2" d="M309.43 371.87H294.76V375.61H309.43V371.87Z" fill="black"/>
<path d="M274.32 330.13V332.12H348.02V330.11L274.32 330.13Z" fill="#3B82F6"/>
<path d="M348.02 332.12L361.81 312.77L361.85 310.57L348.07 330.13L348.02 332.12Z" fill="#3B82F6"/>
<path d="M392.91 330.41H376.4V331.69H392.91V330.41Z" fill="#3B82F6"/>
<path d="M332.959 364.71H326.869V367.03H332.959V364.71Z" fill="#263238"/>
<path opacity="0.3" d="M274.32 330.13V332.12H348.02V330.11L274.32 330.13Z" fill="black"/>
<path opacity="0.3" d="M348.02 332.12L361.81 312.77L361.85 310.57L348.07 330.13L348.02 332.12Z" fill="black"/>
<path opacity="0.3" d="M392.91 330.41H376.4V331.69H392.91V330.41Z" fill="black"/>
<path d="M337.44 384.27C337.39 384.27 337.44 383.89 336.99 383.6C336.876 383.523 336.744 383.474 336.606 383.458C336.469 383.443 336.33 383.46 336.2 383.51C336.049 383.571 335.919 383.676 335.828 383.812C335.737 383.947 335.688 384.107 335.688 384.27C335.688 384.433 335.737 384.593 335.828 384.728C335.919 384.864 336.049 384.969 336.2 385.03C336.33 385.08 336.469 385.097 336.606 385.082C336.744 385.066 336.876 385.018 336.99 384.94C337.4 384.65 337.39 384.26 337.44 384.27C337.49 384.28 337.61 384.7 337.14 385.14C336.996 385.258 336.824 385.338 336.64 385.371C336.456 385.404 336.267 385.39 336.09 385.33C335.869 385.255 335.677 385.112 335.541 384.922C335.405 384.732 335.332 384.504 335.332 384.27C335.332 384.036 335.405 383.808 335.541 383.618C335.677 383.428 335.869 383.285 336.09 383.21C336.267 383.15 336.456 383.136 336.64 383.169C336.824 383.202 336.996 383.282 337.14 383.4C337.61 383.85 337.47 384.3 337.44 384.27Z" fill="#263238"/>
<path d="M197.25 285.34C197.25 285.34 181.74 344.34 160.89 355.42C147.15 362.72 135.02 354.01 126.89 340.21L97.4895 292.89C96.7401 290.193 97.0469 287.312 98.3475 284.834C99.648 282.355 101.845 280.466 104.49 279.55L129 271L153.42 314.53L184.67 276.53" fill="#EB996E"/>
<path d="M44.6405 289.45C45.1805 293.29 54.8505 321.52 54.8505 321.52C54.8505 321.52 98.7305 309.11 98.2705 306.93C97.8905 305.16 91.0305 277.04 81.8705 261.19C80.1533 258.135 77.7451 255.523 74.8384 253.565C71.9318 251.606 68.6072 250.354 65.1305 249.91C63.1905 249.69 58.8805 251.49 57.6905 252.08C48.3505 256.75 40.4605 259.79 44.6405 289.45Z" fill="#455A64"/>
<path d="M113.44 248C130.29 252.69 131.05 260.35 139.49 273.86L152.78 298.06L130.64 312.17L126.58 321.27L124.39 399.53L35.1797 399.09L51.1797 335.74L44.7997 294.14C44.2097 287.58 42.3197 275.32 44.3397 268.99C50.6697 249.21 74.2797 247.1 88.7997 244.1C91.7997 243.48 94.6897 244.43 97.1297 245.17" fill="#3B82F6"/>
<path d="M126.36 325.29C126.291 324.626 126.271 323.957 126.3 323.29C126.3 321.89 126.3 320.03 126.37 317.79V317.74C127.486 315.759 128.458 313.7 129.28 311.58C130.306 309.065 130.563 306.302 130.02 303.64C129.3 300.64 127.64 298.12 126.53 295.64C125.522 293.418 124.848 291.059 124.53 288.64C124.321 287.025 124.277 285.394 124.4 283.77C124.4 283.19 124.51 282.77 124.56 282.45C124.57 282.295 124.607 282.142 124.67 282C124.705 282.593 124.705 283.187 124.67 283.78C124.629 285.386 124.733 286.993 124.98 288.58C125.344 290.933 126.041 293.223 127.05 295.38C128.15 297.82 129.85 300.38 130.61 303.48C131.182 306.25 130.907 309.129 129.82 311.74C128.979 313.873 127.976 315.939 126.82 317.92V317.82C126.71 320.06 126.63 321.92 126.56 323.32C126.552 323.981 126.485 324.641 126.36 325.29Z" fill="#263238"/>
<path d="M114.139 245.25C114.215 245.442 114.266 245.644 114.289 245.85C114.397 246.435 114.464 247.026 114.489 247.62C114.569 249.821 114.202 252.015 113.409 254.07C112.234 257.14 110.208 259.811 107.569 261.77C104.262 264.126 100.208 265.193 96.1689 264.77C94.0934 264.558 92.0666 264.007 90.1689 263.14C88.4148 262.316 86.8044 261.215 85.3989 259.88C83.0485 257.605 81.2582 254.815 80.1689 251.73C79.4313 249.665 79.0099 247.501 78.9189 245.31C78.8812 244.717 78.8812 244.123 78.9189 243.53C78.9123 243.325 78.9325 243.12 78.9789 242.92C79.0489 242.92 78.9789 243.77 79.1189 245.3C79.2969 247.452 79.7714 249.568 80.5289 251.59C81.6413 254.588 83.4272 257.291 85.7489 259.49C87.116 260.778 88.6831 261.835 90.3889 262.62C92.2237 263.456 94.1829 263.986 96.1889 264.19C100.075 264.613 103.982 263.615 107.189 261.38C109.345 259.8 111.101 257.737 112.317 255.356C113.532 252.975 114.174 250.343 114.189 247.67C114.259 246.1 114.069 245.26 114.139 245.25Z" fill="#263238"/>
<path d="M148.739 290.75C147.908 291.372 147.025 291.92 146.099 292.39C144.449 293.39 142.149 294.67 139.649 296.18C137.149 297.69 134.919 299.1 133.299 300.12C132.455 300.723 131.558 301.248 130.619 301.69C131.376 300.976 132.2 300.336 133.079 299.78C134.639 298.67 136.849 297.2 139.359 295.68C141.869 294.16 144.199 292.9 145.909 292.03C146.806 291.507 147.754 291.078 148.739 290.75Z" fill="#263238"/>
<path d="M47.3803 291.79C47.3803 291.79 47.4403 291.97 47.5503 292.32L47.9703 293.88L49.5403 299.88C50.8703 305.08 52.7703 312.5 55.0803 321.49L54.7903 321.33L96.0503 308.44L97.0503 308.07L96.8603 308.4C94.8751 299.16 92.1599 290.091 88.7403 281.28C85.5403 273.2 81.8703 266.19 77.7403 261.14C75.8995 258.842 73.6935 256.862 71.2103 255.28C69.3459 254.072 67.2207 253.324 65.0103 253.1C64.5871 253.031 64.1592 252.994 63.7303 252.99L62.5903 253.05C62.2403 253.05 61.9203 253.05 61.5903 253.12L60.8103 253.29L59.7303 253.51C59.6082 253.537 59.4847 253.557 59.3603 253.57C59.472 253.517 59.5895 253.477 59.7103 253.45L60.7803 253.18L61.5703 252.98C61.8703 252.92 62.2003 252.92 62.5703 252.88L63.7203 252.8C64.1547 252.795 64.589 252.818 65.0203 252.87C67.2732 253.065 69.4469 253.795 71.3603 255C73.8816 256.57 76.1254 258.547 78.0003 260.85C82.2703 265.92 86.0003 272.95 89.2303 281.05C92.6865 289.883 95.4286 298.979 97.4303 308.25V308.5L97.1903 308.58L96.1903 308.95C80.7203 313.86 66.3903 318.19 54.8603 321.74L54.6303 321.81L54.5703 321.58C52.3403 312.58 50.5103 305.13 49.2203 299.92C48.6003 297.35 48.1203 295.33 47.7803 293.92L47.4203 292.35C47.3834 292.166 47.37 291.978 47.3803 291.79Z" fill="#263238"/>
<path d="M95.63 302.78C95.63 302.94 86.15 305.69 74.36 308.94C62.57 312.19 53 314.69 53 314.54C53 314.39 62.47 311.63 74.26 308.38C86.05 305.13 95.58 302.63 95.63 302.78Z" fill="#263238"/>
<path d="M91.9998 174.77C89.2698 168.85 81.7598 166.06 75.4298 167.63C69.0998 169.2 64.0998 174.37 61.4298 180.3C58.7598 186.23 58.0498 192.9 57.9998 199.42C57.9998 202.87 58.1498 206.36 57.4498 209.74C56.7498 213.12 55.0898 216.46 52.1898 218.34C49.9098 219.82 47.1098 220.26 44.6598 221.44C42.2098 222.62 39.9598 225.13 40.5698 227.79C41.2898 230.96 45.2698 231.91 48.4998 232.24C48.5541 234.197 49.1604 236.098 50.2487 237.724C51.3371 239.351 52.8631 240.637 54.6509 241.434C56.4386 242.23 58.4151 242.505 60.3524 242.227C62.2897 241.948 64.1088 241.128 65.5998 239.86C64.5998 243.86 68.1298 247.98 72.1898 248.46C76.2498 248.94 80.1898 246.4 82.4498 242.96C84.7098 239.52 85.3498 235.32 85.5198 231.23C85.6898 227.14 85.3998 223 85.7998 219" fill="#000E19"/>
<path d="M138.07 182.22C138.07 182.22 141.07 162.12 113.41 161.75C82.4698 161.34 76.8898 187.75 82.1898 201.66L97.5698 186.42L138.07 182.22Z" fill="#0B0D10"/>
<path d="M113.799 248C114.109 242.65 114.339 238.29 114.339 238.29C114.339 238.29 130.179 238.66 132.509 224.93C134.839 211.2 137.509 179.22 137.509 179.22C130.59 174.746 122.497 172.429 114.259 172.564C106.02 172.7 98.0078 175.281 91.2394 179.98L89.9394 180.88L79.9394 244.37C79.2262 248.822 80.305 253.374 82.9399 257.032C85.5748 260.691 89.5513 263.156 93.9994 263.89C96.3627 264.28 98.7816 264.168 101.099 263.56C103.415 262.953 105.578 261.864 107.446 260.365C109.314 258.866 110.846 256.99 111.94 254.859C113.035 252.729 113.668 250.392 113.799 248Z" fill="#FFBE9D"/>
<path d="M131.859 203.59C131.806 203.927 131.656 204.24 131.426 204.492C131.197 204.744 130.899 204.923 130.568 205.006C130.238 205.09 129.891 205.075 129.569 204.963C129.247 204.851 128.965 204.648 128.758 204.377C128.551 204.107 128.428 203.781 128.405 203.441C128.381 203.102 128.457 202.762 128.625 202.465C128.792 202.169 129.043 201.928 129.346 201.772C129.649 201.616 129.991 201.553 130.329 201.59C130.562 201.618 130.787 201.693 130.991 201.809C131.194 201.926 131.373 202.082 131.515 202.268C131.658 202.454 131.762 202.667 131.821 202.894C131.88 203.121 131.893 203.358 131.859 203.59Z" fill="#263238"/>
<path d="M133.14 201.94C132.89 202.15 131.74 200.94 129.89 200.59C128.04 200.24 126.55 201.05 126.39 200.78C126.23 200.51 126.58 200.26 127.24 199.89C128.112 199.433 129.111 199.278 130.08 199.45C131.054 199.616 131.947 200.097 132.62 200.82C133.13 201.39 133.26 201.85 133.14 201.94Z" fill="#263238"/>
<path d="M113.29 201.81C113.283 202.05 113.226 202.285 113.123 202.502C113.021 202.719 112.875 202.912 112.694 203.069C112.513 203.227 112.302 203.345 112.073 203.417C111.844 203.489 111.603 203.513 111.365 203.488C111.127 203.462 110.896 203.387 110.688 203.269C110.48 203.15 110.298 202.989 110.155 202.797C110.012 202.605 109.91 202.385 109.856 202.151C109.801 201.918 109.796 201.676 109.84 201.44C109.847 201.2 109.904 200.965 110.006 200.748C110.109 200.532 110.255 200.338 110.436 200.181C110.616 200.023 110.828 199.905 111.056 199.833C111.285 199.761 111.526 199.737 111.765 199.762C112.003 199.788 112.233 199.863 112.442 199.981C112.65 200.1 112.831 200.261 112.974 200.453C113.118 200.645 113.22 200.865 113.274 201.099C113.328 201.332 113.333 201.574 113.29 201.81Z" fill="#263238"/>
<path d="M114.211 200.25C113.971 200.46 112.811 199.2 110.971 198.9C109.131 198.6 107.631 199.36 107.461 199.08C107.381 198.96 107.661 198.56 108.321 198.2C109.192 197.742 110.191 197.587 111.161 197.76C112.135 197.924 113.028 198.406 113.701 199.13C114.201 199.69 114.331 200.16 114.211 200.25Z" fill="#263238"/>
<path d="M116.6 214.55C117.628 214.487 118.661 214.561 119.67 214.77C120.15 214.84 120.61 214.86 120.77 214.54C120.912 214.033 120.912 213.497 120.77 212.99C120.62 211.67 120.47 210.29 120.31 208.84C119.72 202.94 119.42 198.15 119.64 198.12C119.86 198.09 120.52 202.85 121.12 208.75C121.25 210.2 121.38 211.58 121.5 212.9C121.644 213.574 121.563 214.276 121.27 214.9C121.165 215.052 121.027 215.179 120.865 215.269C120.704 215.359 120.524 215.411 120.34 215.42C120.067 215.425 119.795 215.395 119.53 215.33C118.522 215.205 117.536 214.943 116.6 214.55Z" fill="#263238"/>
<path d="M114.389 238.29C107.994 237.307 102.024 234.481 97.209 230.16C97.209 230.16 100.569 241.08 114.139 241.98L114.389 238.29Z" fill="#EB996E"/>
<path d="M114.789 220C114.749 219.402 114.563 218.824 114.248 218.315C113.932 217.805 113.496 217.382 112.979 217.08C112.621 216.867 112.221 216.733 111.807 216.688C111.393 216.644 110.974 216.689 110.579 216.82C110.189 216.965 109.851 217.224 109.608 217.562C109.366 217.901 109.23 218.304 109.219 218.72C109.277 219.181 109.467 219.616 109.767 219.971C110.067 220.326 110.464 220.586 110.909 220.72C111.814 220.969 112.761 221.023 113.689 220.88C113.947 220.872 114.202 220.815 114.439 220.71C114.554 220.653 114.651 220.565 114.719 220.455C114.786 220.345 114.821 220.219 114.819 220.09" fill="#EB996E"/>
<path d="M110.75 215C110.62 215 110.32 215.46 110.27 216.37C110.234 217.578 110.636 218.758 111.403 219.691C112.169 220.625 113.248 221.25 114.44 221.45C115.35 221.58 115.89 221.38 115.88 221.24C115.88 220.93 113.74 220.82 112.25 219C110.76 217.18 111.05 215.05 110.75 215Z" fill="#263238"/>
<path d="M87.9998 198.79C87.7898 198.64 80.1198 195.33 77.9298 204.36C75.7398 213.39 86.2198 212.47 86.2998 212.21C86.3798 211.95 87.9998 198.79 87.9998 198.79Z" fill="#FFBE9D"/>
<path d="M84.1493 208.42C84.1493 208.42 83.9593 208.49 83.6393 208.55C83.2041 208.625 82.7566 208.539 82.3793 208.31C81.4393 207.74 80.9493 206.05 81.2993 204.41C81.4576 203.624 81.8004 202.887 82.2993 202.26C82.4663 201.991 82.6949 201.766 82.9661 201.602C83.2373 201.439 83.5434 201.342 83.8593 201.32C84.0581 201.31 84.2544 201.368 84.4161 201.485C84.5778 201.601 84.6952 201.768 84.7493 201.96C84.8193 202.24 84.7493 202.41 84.7493 202.44C84.7493 202.47 84.9893 202.33 85.0093 201.94C85.0042 201.704 84.9156 201.477 84.7593 201.3C84.5344 201.051 84.2234 200.898 83.8893 200.87C83.4843 200.853 83.0813 200.936 82.7153 201.11C82.3494 201.284 82.0315 201.545 81.7893 201.87C81.1956 202.554 80.783 203.376 80.5893 204.26C80.2093 206.1 80.7893 208.01 82.0993 208.68C82.3454 208.805 82.6145 208.877 82.8899 208.892C83.1652 208.908 83.4408 208.866 83.6993 208.77C84.0793 208.63 84.1793 208.44 84.1493 208.42Z" fill="#EB996E"/>
<path d="M134.37 172.89C135.96 174.04 137.154 175.655 137.788 177.513C138.422 179.37 138.465 181.378 137.91 183.26C136.55 187.58 132.52 192.26 121.32 192.11L123.87 189.28C121.35 191.203 118.405 192.491 115.283 193.038C112.161 193.584 108.953 193.372 105.93 192.42L109.07 186.34C109.07 186.34 94.91 201.35 87 202L88 186C89.91 170.9 96.38 166.37 106.17 165.56C109.806 165.23 113.467 165.293 117.09 165.75C123.361 166.632 129.306 169.089 134.37 172.89Z" fill="#000E19"/>
<path d="M79.0004 159.81C79.7458 159.991 80.4533 160.303 81.0903 160.73C84.3064 162.609 86.8604 165.439 88.4004 168.83C88.7584 169.507 88.9953 170.241 89.1004 171C88.9304 171.08 87.8104 167.73 84.9404 164.6C82.0704 161.47 78.9004 160 79.0004 159.81Z" fill="#3B82F6"/>
<path d="M50.4896 211C50.4896 211 50.2996 210.8 49.8696 210.53C49.2316 210.145 48.4941 209.957 47.7496 209.99C47.1732 210.004 46.6066 210.143 46.0888 210.397C45.571 210.651 45.1142 211.013 44.7496 211.46C44.3088 212.085 44.0328 212.812 43.9471 213.572C43.8615 214.333 43.969 215.102 44.2596 215.81C44.6144 216.66 45.1863 217.403 45.9182 217.963C46.65 218.522 47.5161 218.88 48.4296 219C49.4875 219.161 50.5677 219.087 51.5941 218.785C52.6205 218.483 53.5679 217.959 54.3696 217.25C56.2089 215.709 57.4797 213.597 57.9796 211.25C58.2447 210.024 58.2447 208.756 57.9796 207.53C57.6777 206.259 57.228 205.027 56.6396 203.86C56.0796 202.65 55.4796 201.46 55.0096 200.21C54.5497 198.98 54.2505 197.696 54.1196 196.39C53.9067 193.918 54.1959 191.428 54.9696 189.07C56.31 185.104 58.6402 181.545 61.7396 178.73C63.7772 176.824 65.9866 175.11 68.3396 173.61C69.1696 173.08 69.8296 172.68 70.2796 172.42C70.5024 172.278 70.7366 172.154 70.9796 172.05C70.7835 172.229 70.569 172.386 70.3396 172.52L68.4696 173.8C66.1718 175.35 64.0076 177.089 61.9996 179C59.0067 181.81 56.7564 185.318 55.4496 189.21C54.7185 191.501 54.45 193.914 54.6596 196.31C54.7999 197.566 55.0886 198.802 55.5196 199.99C55.9796 201.2 56.5796 202.37 57.1496 203.6C57.7534 204.805 58.2132 206.077 58.5196 207.39C58.7997 208.692 58.7997 210.038 58.5196 211.34C57.9793 213.804 56.627 216.016 54.6796 217.62C53.8191 218.37 52.804 218.92 51.7065 219.233C50.609 219.546 49.456 219.613 48.3296 219.43C47.335 219.289 46.3959 218.886 45.6086 218.262C44.8213 217.638 44.2142 216.816 43.8496 215.88C43.5482 215.11 43.4461 214.277 43.5527 213.457C43.6594 212.637 43.9713 211.857 44.4596 211.19C44.8596 210.714 45.3607 210.333 45.9263 210.076C46.492 209.818 47.1081 209.69 47.7296 209.7C48.5076 209.685 49.2704 209.916 49.9096 210.36C50.1439 210.532 50.3411 210.75 50.4896 211Z" fill="#0B0D10"/>
<path d="M86.7194 180.82C86.404 180.279 86.2127 179.674 86.1594 179.05C85.9242 177.563 85.982 176.045 86.3294 174.58C86.6676 173.112 87.2929 171.725 88.1694 170.5C88.8494 169.57 89.4094 169.12 89.4494 169.17C89.4894 169.22 87.6394 171.38 86.8894 174.71C86.1394 178.04 86.8994 180.79 86.7194 180.82Z" fill="#263238"/>
<path d="M78.4588 210C77.928 210.462 77.5164 211.045 77.2588 211.7C77.1492 212.045 77.1087 212.408 77.1396 212.768C77.1705 213.128 77.2722 213.479 77.4388 213.8C77.6728 214.176 77.9904 214.492 78.3668 214.724C78.7432 214.957 79.1683 215.099 79.6088 215.14C80.0466 215.209 80.4942 215.18 80.9196 215.056C81.3449 214.931 81.7374 214.714 82.0688 214.42C82.5866 213.903 82.8779 213.202 82.8788 212.47C82.8474 211.758 82.6264 211.068 82.2388 210.47C82.2388 210.47 82.4588 210.55 82.7088 210.86C83.0575 211.308 83.26 211.853 83.2888 212.42C83.3174 212.848 83.2577 213.278 83.1131 213.682C82.9686 214.087 82.7425 214.457 82.4488 214.77C82.0635 215.134 81.6002 215.405 81.0941 215.563C80.5881 215.721 80.0527 215.761 79.5288 215.68C79.0122 215.631 78.5142 215.462 78.0748 215.186C77.6354 214.91 77.2669 214.534 76.9988 214.09C76.8104 213.703 76.705 213.28 76.6895 212.85C76.674 212.419 76.7487 211.99 76.9088 211.59C77.1057 211.062 77.4534 210.603 77.9088 210.27C78.2288 210.05 78.4488 210 78.4588 210Z" fill="#455A64"/>
<path d="M140.369 186.82C140.259 186.82 140.699 185.28 140.709 182.82C140.741 179.557 139.88 176.347 138.217 173.539C136.555 170.731 134.155 168.431 131.279 166.89C129.089 165.7 127.539 165.36 127.569 165.25C127.941 165.256 128.309 165.324 128.659 165.45C129.629 165.717 130.57 166.079 131.469 166.53C134.482 168.022 136.997 170.357 138.71 173.25C140.422 176.143 141.259 179.471 141.119 182.83C141.081 183.84 140.947 184.845 140.719 185.83C140.648 186.175 140.531 186.508 140.369 186.82Z" fill="#3B82F6"/>
<path d="M115.099 196.73C115.039 196.8 114.659 196.44 113.969 196.02C113.082 195.474 112.085 195.132 111.049 195.02C110.01 194.916 108.96 195.049 107.979 195.41C107.209 195.68 106.769 195.95 106.719 195.87C106.669 195.79 107.049 195.42 107.819 195.03C108.838 194.526 109.979 194.321 111.109 194.44C112.238 194.564 113.311 194.996 114.209 195.69C114.879 196.23 115.159 196.69 115.099 196.73Z" fill="#3B82F6"/>
<path d="M132.739 198.42C131.553 198.612 130.344 198.612 129.159 198.42C127.961 198.425 126.769 198.239 125.629 197.87C126.811 197.68 128.016 197.68 129.199 197.87C130.401 197.863 131.596 198.049 132.739 198.42Z" fill="#3B82F6"/>
<path d="M197.25 285.34C197.25 285.34 202.92 271.87 195.25 273.34C183.5 275.58 185.25 287.01 185.25 287.01L197.25 285.34Z" fill="#EB996E"/>
<path d="M208.17 224.92C207.182 224.569 206.147 224.371 205.1 224.33C211.48 229.07 213.21 241.27 208.74 253.59C204.38 265.59 195.56 273.78 187.74 273.72L187.12 273.56C180.91 268.71 179.27 256.66 183.68 244.48C188.09 232.3 197.18 223.98 205.09 224.33C204.286 223.727 203.401 223.242 202.46 222.89C194 219.81 183 228.57 178 242.45C173.11 255.93 175.65 269.25 183.59 272.82H183.43L167.79 312.82C167.455 313.67 167.473 314.618 167.837 315.455C168.202 316.293 168.885 316.951 169.735 317.285C170.585 317.619 171.533 317.602 172.37 317.237C173.207 316.873 173.865 316.19 174.2 315.34L190 275.18C198.49 278.25 209.45 269.5 214.48 255.62C219.51 241.74 216.66 228 208.17 224.92Z" fill="#263238"/>
<path d="M201.109 261.1C201.221 260.676 201.382 260.267 201.589 259.88L203.049 256.65C204.709 253.125 206.003 249.439 206.909 245.65C207.778 241.873 207.778 237.947 206.909 234.17C206.47 232.624 205.915 231.113 205.249 229.65C205.542 229.98 205.784 230.35 205.969 230.75C206.534 231.801 206.98 232.911 207.299 234.06C208.307 237.892 208.365 241.911 207.469 245.77C206.558 249.584 205.199 253.276 203.419 256.77C202.749 258.11 202.189 259.19 201.789 259.92C201.616 260.342 201.388 260.739 201.109 261.1Z" fill="#263238"/>
<path d="M199.471 264.3C199.581 264.42 199.101 265.09 198.381 265.8C197.661 266.51 197.001 266.99 196.891 266.88C196.781 266.77 197.261 266.1 197.981 265.39C198.701 264.68 199.361 264.19 199.471 264.3Z" fill="#263238"/>
<path d="M182.41 279.32C181.2 277.03 179.79 273.87 177.66 272.39C175.53 270.91 172.57 269.2 170.07 271.39C173.215 275.879 176.128 280.525 178.8 285.31L182.41 279.32Z" fill="#EB996E"/>
<path d="M199.071 275.27C199.071 275.27 198.601 272.61 194.701 273.78C190.801 274.95 178.581 277.5 180.941 280.1C183.301 282.7 187.471 281.53 187.471 281.53C187.471 281.53 180.681 283 181.331 284.42C181.981 285.84 183.111 288.3 186.001 286.76C188.891 285.22 196.911 282.61 196.911 282.61L199.071 275.27Z" fill="#EB996E"/>
<path d="M198.629 281.21C198.629 281.21 198.629 280.95 198.629 280.54C198.619 280.265 198.526 279.998 198.362 279.777C198.197 279.555 197.97 279.389 197.709 279.3C196.84 279.202 195.961 279.333 195.159 279.68L191.909 280.55C189.599 281.16 187.499 281.67 185.969 282.01C185.154 282.251 184.316 282.402 183.469 282.46C184.234 282.09 185.039 281.808 185.869 281.62C187.369 281.17 189.449 280.62 191.759 280L195.019 279.17C195.917 278.812 196.9 278.721 197.849 278.91C198.168 279.042 198.436 279.272 198.616 279.567C198.796 279.862 198.877 280.206 198.849 280.55C198.819 281 198.649 281.22 198.629 281.21Z" fill="#263238"/>
<path d="M94.3494 309.52L106.149 331.4L164.729 301.9C164.729 301.9 173.349 285.34 174.779 285.55C176.209 285.76 182.549 288.49 182.549 288.49C182.549 288.49 191.549 283.63 193.489 284.95C195.429 286.27 198.049 302.27 196.349 307.22C194.649 312.17 176.859 322.14 176.859 322.14C176.859 322.14 128.859 353.66 107.989 364.73C94.2494 372.03 82.1294 363.32 73.9894 349.52L60.1094 320.15" fill="#FFBE9D"/>
</svg>
